<svg width="131" height="12" viewBox="0 0 131 12" fill="none" xmlns="http://www.w3.org/2000/svg">
<path opacity="0.5" d="M7.42 10.104V11H0.546V10.286L4.62 6.296C5.13333 5.792 5.47867 5.358 5.656 4.994C5.84267 4.62067 5.936 4.24733 5.936 3.874C5.936 3.29533 5.73533 2.84733 5.334 2.53C4.942 2.20333 4.37733 2.04 3.64 2.04C2.492 2.04 1.60067 2.404 0.966 3.132L0.252 2.516C0.634667 2.068 1.12 1.72267 1.708 1.48C2.30533 1.23733 2.97733 1.116 3.724 1.116C4.72267 1.116 5.51133 1.354 6.09 1.83C6.678 2.29667 6.972 2.94067 6.972 3.762C6.972 4.266 6.86 4.75133 6.636 5.218C6.412 5.68467 5.98733 6.22133 5.362 6.828L2.03 10.104H7.42ZM12.5363 11.084C11.7803 11.084 11.1037 10.8833 10.5063 10.482C9.91834 10.0807 9.45634 9.50667 9.12034 8.76C8.79368 8.004 8.63034 7.11733 8.63034 6.1C8.63034 5.08267 8.79368 4.20067 9.12034 3.454C9.45634 2.698 9.91834 2.11933 10.5063 1.718C11.1037 1.31667 11.7803 1.116 12.5363 1.116C13.2923 1.116 13.9643 1.31667 14.5523 1.718C15.1497 2.11933 15.6163 2.698 15.9523 3.454C16.2883 4.20067 16.4563 5.08267 16.4563 6.1C16.4563 7.11733 16.2883 8.004 15.9523 8.76C15.6163 9.50667 15.1497 10.0807 14.5523 10.482C13.9643 10.8833 13.2923 11.084 12.5363 11.084ZM12.5363 10.16C13.1057 10.16 13.605 10.0013 14.0343 9.684C14.473 9.36667 14.8137 8.90467 15.0563 8.298C15.299 7.69133 15.4203 6.95867 15.4203 6.1C15.4203 5.24133 15.299 4.50867 15.0563 3.902C14.8137 3.29533 14.473 2.83333 14.0343 2.516C13.605 2.19867 13.1057 2.04 12.5363 2.04C11.967 2.04 11.463 2.19867 11.0243 2.516C10.595 2.83333 10.259 3.29533 10.0163 3.902C9.77368 4.50867 9.65234 5.24133 9.65234 6.1C9.65234 6.95867 9.77368 7.69133 10.0163 8.298C10.259 8.90467 10.595 9.36667 11.0243 9.684C11.463 10.0013 11.967 10.16 12.5363 10.16ZM24.5645 10.104V11H17.6905V10.286L21.7645 6.296C22.2779 5.792 22.6232 5.358 22.8005 4.994C22.9872 4.62067 23.0805 4.24733 23.0805 3.874C23.0805 3.29533 22.8799 2.84733 22.4785 2.53C22.0865 2.20333 21.5219 2.04 20.7845 2.04C19.6365 2.04 18.7452 2.404 18.1105 3.132L17.3965 2.516C17.7792 2.068 18.2645 1.72267 18.8525 1.48C19.4499 1.23733 20.1219 1.116 20.8685 1.116C21.8672 1.116 22.6559 1.354 23.2345 1.83C23.8225 2.29667 24.1165 2.94067 24.1165 3.762C24.1165 4.266 24.0045 4.75133 23.7805 5.218C23.5565 5.68467 23.1319 6.22133 22.5065 6.828L19.1745 10.104H24.5645ZM29.6809 11.084C28.9249 11.084 28.2482 10.8833 27.6509 10.482C27.0629 10.0807 26.6009 9.50667 26.2649 8.76C25.9382 8.004 25.7749 7.11733 25.7749 6.1C25.7749 5.08267 25.9382 4.20067 26.2649 3.454C26.6009 2.698 27.0629 2.11933 27.6509 1.718C28.2482 1.31667 28.9249 1.116 29.6809 1.116C30.4369 1.116 31.1089 1.31667 31.6969 1.718C32.2942 2.11933 32.7609 2.698 33.0969 3.454C33.4329 4.20067 33.6009 5.08267 33.6009 6.1C33.6009 7.11733 33.4329 8.004 33.0969 8.76C32.7609 9.50667 32.2942 10.0807 31.6969 10.482C31.1089 10.8833 30.4369 11.084 29.6809 11.084ZM29.6809 10.16C30.2502 10.16 30.7495 10.0013 31.1789 9.684C31.6175 9.36667 31.9582 8.90467 32.2009 8.298C32.4435 7.69133 32.5649 6.95867 32.5649 6.1C32.5649 5.24133 32.4435 4.50867 32.2009 3.902C31.9582 3.29533 31.6175 2.83333 31.1789 2.516C30.7495 2.19867 30.2502 2.04 29.6809 2.04C29.1115 2.04 28.6075 2.19867 28.1689 2.516C27.7395 2.83333 27.4035 3.29533 27.1609 3.902C26.9182 4.50867 26.7969 5.24133 26.7969 6.1C26.7969 6.95867 26.9182 7.69133 27.1609 8.298C27.4035 8.90467 27.7395 9.36667 28.1689 9.684C28.6075 10.0013 29.1115 10.16 29.6809 10.16ZM45.7225 8.382H40.2625L39.0865 11H38.0085L42.4885 1.2H43.5105L47.9905 11H46.8985L45.7225 8.382ZM45.3445 7.542L42.9925 2.278L40.6405 7.542H45.3445ZM49.4016 0.611999H50.3956V11H49.4016V0.611999ZM57.0667 10.552C56.8801 10.72 56.6467 10.8507 56.3667 10.944C56.0961 11.028 55.8114 11.07 55.5127 11.07C54.8221 11.07 54.2901 10.8833 53.9167 10.51C53.5434 10.1367 53.3567 9.60933 53.3567 8.928V4.476H52.0407V3.636H53.3567V2.026H54.3507V3.636H56.5907V4.476H54.3507V8.872C54.3507 9.31067 54.4581 9.64667 54.6727 9.88C54.8967 10.104 55.2141 10.216 55.6247 10.216C55.8301 10.216 56.0261 10.1833 56.2127 10.118C56.4087 10.0527 56.5767 9.95933 56.7167 9.838L57.0667 10.552ZM61.4522 3.58C62.4136 3.58 63.1509 3.82267 63.6642 4.308C64.1776 4.784 64.4342 5.49333 64.4342 6.436V11H63.4822V9.852C63.2582 10.2347 62.9269 10.5333 62.4882 10.748C62.0589 10.9627 61.5456 11.07 60.9482 11.07C60.1269 11.07 59.4736 10.874 58.9882 10.482C58.5029 10.09 58.2602 9.572 58.2602 8.928C58.2602 8.30267 58.4842 7.79867 58.9322 7.416C59.3896 7.03333 60.1129 6.842 61.1022 6.842H63.4402V6.394C63.4402 5.75933 63.2629 5.27867 62.9082 4.952C62.5536 4.616 62.0356 4.448 61.3542 4.448C60.8876 4.448 60.4396 4.52733 60.0102 4.686C59.5809 4.83533 59.2122 5.04533 58.9042 5.316L58.4562 4.574C58.8296 4.25667 59.2776 4.014 59.8002 3.846C60.3229 3.66867 60.8736 3.58 61.4522 3.58ZM61.1022 10.286C61.6622 10.286 62.1429 10.16 62.5442 9.908C62.9456 9.64667 63.2442 9.27333 63.4402 8.788V7.584H61.1302C59.8702 7.584 59.2402 8.02267 59.2402 8.9C59.2402 9.32933 59.4036 9.67 59.7302 9.922C60.0569 10.1647 60.5142 10.286 61.1022 10.286ZM73.7101 11.084C72.9821 11.084 72.2821 10.9673 71.6101 10.734C70.9474 10.5007 70.4341 10.1927 70.0701 9.81L70.4761 9.012C70.8308 9.36667 71.3021 9.656 71.8901 9.88C72.4781 10.0947 73.0848 10.202 73.7101 10.202C74.5874 10.202 75.2454 10.0433 75.6841 9.726C76.1228 9.39933 76.3421 8.97933 76.3421 8.466C76.3421 8.074 76.2208 7.76133 75.9781 7.528C75.7448 7.29467 75.4554 7.11733 75.1101 6.996C74.7648 6.86533 74.2841 6.72533 73.6681 6.576C72.9308 6.38933 72.3428 6.212 71.9041 6.044C71.4654 5.86667 71.0874 5.60067 70.7701 5.246C70.4621 4.89133 70.3081 4.41067 70.3081 3.804C70.3081 3.30933 70.4388 2.86133 70.7001 2.46C70.9614 2.04933 71.3628 1.72267 71.9041 1.48C72.4454 1.23733 73.1174 1.116 73.9201 1.116C74.4801 1.116 75.0261 1.19533 75.5581 1.354C76.0994 1.50333 76.5661 1.71333 76.9581 1.984L76.6081 2.81C76.1974 2.53933 75.7588 2.33867 75.2921 2.208C74.8254 2.068 74.3681 1.998 73.9201 1.998C73.0614 1.998 72.4128 2.166 71.9741 2.502C71.5448 2.82867 71.3301 3.25333 71.3301 3.776C71.3301 4.168 71.4468 4.48533 71.6801 4.728C71.9228 4.96133 72.2214 5.14333 72.5761 5.274C72.9401 5.39533 73.4254 5.53067 74.0321 5.68C74.7508 5.85733 75.3294 6.03467 75.7681 6.212C76.2161 6.38 76.5941 6.64133 76.9021 6.996C77.2101 7.34133 77.3641 7.81267 77.3641 8.41C77.3641 8.90467 77.2288 9.35733 76.9581 9.768C76.6968 10.1693 76.2908 10.4913 75.7401 10.734C75.1894 10.9673 74.5128 11.084 73.7101 11.084ZM82.4214 11.07C81.7121 11.07 81.0727 10.9113 80.5034 10.594C79.9341 10.2673 79.4861 9.81933 79.1594 9.25C78.8327 8.68067 78.6694 8.03667 78.6694 7.318C78.6694 6.59933 78.8327 5.95533 79.1594 5.386C79.4861 4.81667 79.9341 4.37333 80.5034 4.056C81.0727 3.73867 81.7121 3.58 82.4214 3.58C83.1307 3.58 83.7701 3.73867 84.3394 4.056C84.9087 4.37333 85.3521 4.81667 85.6694 5.386C85.9961 5.95533 86.1594 6.59933 86.1594 7.318C86.1594 8.03667 85.9961 8.68067 85.6694 9.25C85.3521 9.81933 84.9087 10.2673 84.3394 10.594C83.7701 10.9113 83.1307 11.07 82.4214 11.07ZM82.4214 10.188C82.9441 10.188 83.4107 10.0713 83.8214 9.838C84.2414 9.59533 84.5681 9.25467 84.8014 8.816C85.0347 8.37733 85.1514 7.878 85.1514 7.318C85.1514 6.758 85.0347 6.25867 84.8014 5.82C84.5681 5.38133 84.2414 5.04533 83.8214 4.812C83.4107 4.56933 82.9441 4.448 82.4214 4.448C81.8987 4.448 81.4274 4.56933 81.0074 4.812C80.5967 5.04533 80.2701 5.38133 80.0274 5.82C79.7941 6.25867 79.6774 6.758 79.6774 7.318C79.6774 7.878 79.7941 8.37733 80.0274 8.816C80.2701 9.25467 80.5967 9.59533 81.0074 9.838C81.4274 10.0713 81.8987 10.188 82.4214 10.188ZM90.6247 1.382C90.1954 1.382 89.8687 1.49867 89.6447 1.732C89.4301 1.96533 89.3227 2.31067 89.3227 2.768V3.636H91.5907V4.476H89.3507V11H88.3567V4.476H87.0407V3.636H88.3567V2.726C88.3567 2.054 88.5481 1.522 88.9307 1.13C89.3227 0.737999 89.8734 0.541999 90.5827 0.541999C90.8627 0.541999 91.1334 0.583999 91.3947 0.668C91.6561 0.742666 91.8754 0.854666 92.0527 1.004L91.7167 1.746C91.4274 1.50333 91.0634 1.382 90.6247 1.382ZM96.8109 10.552C96.6242 10.72 96.3909 10.8507 96.1109 10.944C95.8402 11.028 95.5555 11.07 95.2569 11.07C94.5662 11.07 94.0342 10.8833 93.6609 10.51C93.2875 10.1367 93.1009 9.60933 93.1009 8.928V4.476H91.7849V3.636H93.1009V2.026H94.0949V3.636H96.3349V4.476H94.0949V8.872C94.0949 9.31067 94.2022 9.64667 94.4169 9.88C94.6409 10.104 94.9582 10.216 95.3689 10.216C95.5742 10.216 95.7702 10.1833 95.9569 10.118C96.1529 10.0527 96.3209 9.95933 96.4609 9.838L96.8109 10.552ZM109.292 3.636L106.506 11H105.568L103.244 4.966L100.92 11H99.9817L97.2097 3.636H98.1617L100.472 9.894L102.838 3.636H103.692L106.044 9.894L108.382 3.636H109.292ZM113.146 3.58C114.107 3.58 114.844 3.82267 115.358 4.308C115.871 4.784 116.128 5.49333 116.128 6.436V11H115.176V9.852C114.952 10.2347 114.62 10.5333 114.182 10.748C113.752 10.9627 113.239 11.07 112.642 11.07C111.82 11.07 111.167 10.874 110.682 10.482C110.196 10.09 109.954 9.572 109.954 8.928C109.954 8.30267 110.178 7.79867 110.626 7.416C111.083 7.03333 111.806 6.842 112.796 6.842H115.134V6.394C115.134 5.75933 114.956 5.27867 114.602 4.952C114.247 4.616 113.729 4.448 113.048 4.448C112.581 4.448 112.133 4.52733 111.704 4.686C111.274 4.83533 110.906 5.04533 110.598 5.316L110.15 4.574C110.523 4.25667 110.971 4.014 111.494 3.846C112.016 3.66867 112.567 3.58 113.146 3.58ZM112.796 10.286C113.356 10.286 113.836 10.16 114.238 9.908C114.639 9.64667 114.938 9.27333 115.134 8.788V7.584H112.824C111.564 7.584 110.934 8.02267 110.934 8.9C110.934 9.32933 111.097 9.67 111.424 9.922C111.75 10.1647 112.208 10.286 112.796 10.286ZM119.779 5.078C120.013 4.58333 120.358 4.21 120.815 3.958C121.282 3.706 121.856 3.58 122.537 3.58V4.546L122.299 4.532C121.525 4.532 120.918 4.77 120.479 5.246C120.041 5.722 119.821 6.38933 119.821 7.248V11H118.827V3.636H119.779V5.078ZM130.681 7.626H124.521C124.577 8.39133 124.871 9.012 125.403 9.488C125.935 9.95467 126.607 10.188 127.419 10.188C127.876 10.188 128.296 10.1087 128.679 9.95C129.061 9.782 129.393 9.53933 129.673 9.222L130.233 9.866C129.906 10.258 129.495 10.5567 129.001 10.762C128.515 10.9673 127.979 11.07 127.391 11.07C126.635 11.07 125.963 10.9113 125.375 10.594C124.796 10.2673 124.343 9.81933 124.017 9.25C123.69 8.68067 123.527 8.03667 123.527 7.318C123.527 6.59933 123.681 5.95533 123.989 5.386C124.306 4.81667 124.735 4.37333 125.277 4.056C125.827 3.73867 126.443 3.58 127.125 3.58C127.806 3.58 128.417 3.73867 128.959 4.056C129.5 4.37333 129.925 4.81667 130.233 5.386C130.541 5.946 130.695 6.59 130.695 7.318L130.681 7.626ZM127.125 4.434C126.415 4.434 125.818 4.66267 125.333 5.12C124.857 5.568 124.586 6.156 124.521 6.884H129.743C129.677 6.156 129.402 5.568 128.917 5.12C128.441 4.66267 127.843 4.434 127.125 4.434Z" fill="#1E0D03"/>
</svg>
