<svg width="404" height="272" viewBox="0 0 404 272" fill="none" xmlns="http://www.w3.org/2000/svg">
<path d="M329 136C329 103.801 316.374 72.8851 293.832 49.8921C271.29 26.8992 240.631 13.6624 208.438 13.0242C176.245 12.3859 145.085 24.3972 121.65 46.4786C98.2148 68.5601 84.3729 98.9509 83.0966 131.125C81.8204 163.299 93.2117 194.691 114.824 218.559C136.437 242.427 166.547 256.869 198.69 258.783C230.832 260.696 262.444 249.929 286.736 228.794C311.028 207.659 326.063 177.841 328.614 145.742L261.176 140.384C260.028 154.828 253.262 168.247 242.331 177.757C231.4 187.268 217.175 192.113 202.71 191.252C188.246 190.391 174.697 183.892 164.971 173.152C155.245 162.411 150.119 148.285 150.693 133.806C151.268 119.328 157.497 105.652 168.042 95.7154C178.588 85.7787 192.61 80.3737 207.097 80.6609C221.584 80.9481 235.381 86.9046 245.524 97.2515C255.668 107.598 261.35 121.51 261.35 136H329Z" fill="#4F75FF"/>
<path d="M206 13C228.663 13 250.886 19.2614 270.215 31.0933C289.545 42.9251 305.229 59.8673 315.538 80.0501C325.847 100.233 330.379 122.871 328.635 145.467C326.891 168.063 318.937 189.738 305.653 208.099L250.844 168.445C256.822 160.182 260.401 150.428 261.186 140.26C261.971 130.092 259.931 119.905 255.292 110.823C250.653 101.74 243.595 94.1163 234.897 88.792C226.199 83.4677 216.198 80.65 206 80.65V13Z" fill="#FF8A48"/>
<g filter="url(#filter0_d_20_501)">
<path d="M50 132C50 125.373 55.3726 120 62 120H105C111.627 120 117 125.373 117 132V154C117 160.627 111.627 166 105 166H62C55.3726 166 50 160.627 50 154V132Z" fill="white"/>
<path d="M65.304 142.218C66.7227 142.218 67.754 142.475 68.398 142.988C69.0513 143.492 69.378 144.201 69.378 145.116C69.378 145.685 69.2427 146.194 68.972 146.642C68.7107 147.09 68.314 147.445 67.782 147.706C67.25 147.958 66.5967 148.084 65.822 148.084C65.122 148.084 64.4547 147.972 63.82 147.748C63.1947 147.515 62.6907 147.207 62.308 146.824L62.798 146.026C63.1247 146.362 63.554 146.637 64.086 146.852C64.618 147.057 65.192 147.16 65.808 147.16C66.62 147.16 67.2453 146.978 67.684 146.614C68.132 146.25 68.356 145.765 68.356 145.158C68.356 144.486 68.104 143.977 67.6 143.632C67.1053 143.287 66.2653 143.114 65.08 143.114H62.994L63.498 138.2H68.86V139.096H64.38L64.044 142.218H65.304ZM74.7177 142.134C75.3617 142.134 75.931 142.255 76.4257 142.498C76.9297 142.741 77.3217 143.086 77.6017 143.534C77.8817 143.973 78.0217 144.486 78.0217 145.074C78.0217 145.671 77.877 146.199 77.5877 146.656C77.2984 147.113 76.897 147.468 76.3837 147.72C75.8797 147.963 75.3104 148.084 74.6757 148.084C73.3784 148.084 72.3844 147.659 71.6937 146.81C71.003 145.951 70.6577 144.743 70.6577 143.184C70.6577 142.092 70.8444 141.168 71.2177 140.412C71.591 139.656 72.1137 139.087 72.7857 138.704C73.4577 138.312 74.2417 138.116 75.1377 138.116C76.1084 138.116 76.883 138.293 77.4617 138.648L77.0557 139.46C76.589 139.152 75.9544 138.998 75.1517 138.998C74.069 138.998 73.2197 139.343 72.6037 140.034C71.9877 140.715 71.6797 141.709 71.6797 143.016C71.6797 143.249 71.6937 143.515 71.7217 143.814C71.9644 143.282 72.3517 142.871 72.8837 142.582C73.4157 142.283 74.027 142.134 74.7177 142.134ZM74.6337 147.23C75.343 147.23 75.917 147.039 76.3557 146.656C76.8037 146.264 77.0277 145.746 77.0277 145.102C77.0277 144.458 76.8037 143.945 76.3557 143.562C75.917 143.179 75.3197 142.988 74.5637 142.988C74.069 142.988 73.6304 143.081 73.2477 143.268C72.8744 143.455 72.5804 143.711 72.3657 144.038C72.151 144.365 72.0437 144.729 72.0437 145.13C72.0437 145.503 72.1417 145.849 72.3377 146.166C72.543 146.483 72.8417 146.74 73.2337 146.936C73.6257 147.132 74.0924 147.23 74.6337 147.23ZM83.0949 148.084C82.3389 148.084 81.6623 147.883 81.0649 147.482C80.4769 147.081 80.0149 146.507 79.6789 145.76C79.3523 145.004 79.1889 144.117 79.1889 143.1C79.1889 142.083 79.3523 141.201 79.6789 140.454C80.0149 139.698 80.4769 139.119 81.0649 138.718C81.6623 138.317 82.3389 138.116 83.0949 138.116C83.8509 138.116 84.5229 138.317 85.1109 138.718C85.7083 139.119 86.1749 139.698 86.5109 140.454C86.8469 141.201 87.0149 142.083 87.0149 143.1C87.0149 144.117 86.8469 145.004 86.5109 145.76C86.1749 146.507 85.7083 147.081 85.1109 147.482C84.5229 147.883 83.8509 148.084 83.0949 148.084ZM83.0949 147.16C83.6643 147.16 84.1636 147.001 84.5929 146.684C85.0316 146.367 85.3723 145.905 85.6149 145.298C85.8576 144.691 85.9789 143.959 85.9789 143.1C85.9789 142.241 85.8576 141.509 85.6149 140.902C85.3723 140.295 85.0316 139.833 84.5929 139.516C84.1636 139.199 83.6643 139.04 83.0949 139.04C82.5256 139.04 82.0216 139.199 81.5829 139.516C81.1536 139.833 80.8176 140.295 80.5749 140.902C80.3323 141.509 80.2109 142.241 80.2109 143.1C80.2109 143.959 80.3323 144.691 80.5749 145.298C80.8176 145.905 81.1536 146.367 81.5829 146.684C82.0216 147.001 82.5256 147.16 83.0949 147.16ZM95.1231 147.104V148H88.2491V147.286L92.3231 143.296C92.8365 142.792 93.1818 142.358 93.3591 141.994C93.5458 141.621 93.6391 141.247 93.6391 140.874C93.6391 140.295 93.4385 139.847 93.0371 139.53C92.6451 139.203 92.0805 139.04 91.3431 139.04C90.1951 139.04 89.3038 139.404 88.6691 140.132L87.9551 139.516C88.3378 139.068 88.8231 138.723 89.4111 138.48C90.0085 138.237 90.6805 138.116 91.4271 138.116C92.4258 138.116 93.2145 138.354 93.7931 138.83C94.3811 139.297 94.6751 139.941 94.6751 140.762C94.6751 141.266 94.5631 141.751 94.3391 142.218C94.1151 142.685 93.6905 143.221 93.0651 143.828L89.7331 147.104H95.1231ZM104.39 145.424H102.43V148H101.422V145.424H95.892V144.696L101.086 138.2H102.206L97.194 144.528H101.45V142.26H102.43V144.528H104.39V145.424Z" fill="#1E0D03"/>
</g>
<g filter="url(#filter1_d_20_501)">
<path d="M291 75C291 68.3726 296.373 63 303 63H342C348.627 63 354 68.3726 354 75V97C354 103.627 348.627 109 342 109H303C296.373 109 291 103.627 291 97V75Z" fill="white"/>
<path d="M306.444 81.2V91H305.436V82.096H303.126V81.2H306.444ZM312.119 85.4C313.145 85.456 313.925 85.736 314.457 86.24C314.998 86.7347 315.269 87.3833 315.269 88.186C315.269 88.746 315.133 89.2453 314.863 89.684C314.592 90.1133 314.191 90.454 313.659 90.706C313.127 90.958 312.478 91.084 311.713 91.084C311.003 91.084 310.331 90.972 309.697 90.748C309.071 90.5147 308.567 90.2067 308.185 89.824L308.675 89.026C309.001 89.362 309.435 89.6373 309.977 89.852C310.518 90.0573 311.097 90.16 311.713 90.16C312.515 90.16 313.136 89.9873 313.575 89.642C314.013 89.2873 314.233 88.802 314.233 88.186C314.233 87.5793 314.013 87.1033 313.575 86.758C313.136 86.4127 312.473 86.24 311.587 86.24H310.887V85.498L313.603 82.096H308.591V81.2H314.891V81.914L312.119 85.4ZM319.128 85.218C320.547 85.218 321.578 85.4747 322.222 85.988C322.876 86.492 323.202 87.2013 323.202 88.116C323.202 88.6853 323.067 89.194 322.796 89.642C322.535 90.09 322.138 90.4447 321.606 90.706C321.074 90.958 320.421 91.084 319.646 91.084C318.946 91.084 318.279 90.972 317.644 90.748C317.019 90.5147 316.515 90.2067 316.132 89.824L316.622 89.026C316.949 89.362 317.378 89.6373 317.91 89.852C318.442 90.0573 319.016 90.16 319.632 90.16C320.444 90.16 321.07 89.978 321.508 89.614C321.956 89.25 322.18 88.7647 322.18 88.158C322.18 87.486 321.928 86.9773 321.424 86.632C320.93 86.2867 320.09 86.114 318.904 86.114H316.818L317.322 81.2H322.684V82.096H318.204L317.868 85.218H319.128ZM328.542 85.134C329.186 85.134 329.755 85.2553 330.25 85.498C330.754 85.7407 331.146 86.086 331.426 86.534C331.706 86.9727 331.846 87.486 331.846 88.074C331.846 88.6713 331.701 89.1987 331.412 89.656C331.123 90.1133 330.721 90.468 330.208 90.72C329.704 90.9627 329.135 91.084 328.5 91.084C327.203 91.084 326.209 90.6593 325.518 89.81C324.827 88.9513 324.482 87.7427 324.482 86.184C324.482 85.092 324.669 84.168 325.042 83.412C325.415 82.656 325.938 82.0867 326.61 81.704C327.282 81.312 328.066 81.116 328.962 81.116C329.933 81.116 330.707 81.2933 331.286 81.648L330.88 82.46C330.413 82.152 329.779 81.998 328.976 81.998C327.893 81.998 327.044 82.3433 326.428 83.034C325.812 83.7153 325.504 84.7093 325.504 86.016C325.504 86.2493 325.518 86.5153 325.546 86.814C325.789 86.282 326.176 85.8713 326.708 85.582C327.24 85.2833 327.851 85.134 328.542 85.134ZM328.458 90.23C329.167 90.23 329.741 90.0387 330.18 89.656C330.628 89.264 330.852 88.746 330.852 88.102C330.852 87.458 330.628 86.9447 330.18 86.562C329.741 86.1793 329.144 85.988 328.388 85.988C327.893 85.988 327.455 86.0813 327.072 86.268C326.699 86.4547 326.405 86.7113 326.19 87.038C325.975 87.3647 325.868 87.7287 325.868 88.13C325.868 88.5033 325.966 88.8487 326.162 89.166C326.367 89.4833 326.666 89.74 327.058 89.936C327.45 90.132 327.917 90.23 328.458 90.23ZM338.627 85.862C339.243 86.0673 339.714 86.3753 340.041 86.786C340.377 87.1967 340.545 87.6913 340.545 88.27C340.545 88.8393 340.391 89.3387 340.083 89.768C339.775 90.188 339.332 90.5147 338.753 90.748C338.184 90.972 337.512 91.084 336.737 91.084C335.561 91.084 334.637 90.832 333.965 90.328C333.293 89.824 332.957 89.138 332.957 88.27C332.957 87.682 333.116 87.1873 333.433 86.786C333.76 86.3753 334.231 86.0673 334.847 85.862C334.343 85.666 333.96 85.386 333.699 85.022C333.438 84.6487 333.307 84.21 333.307 83.706C333.307 82.9127 333.615 82.2827 334.231 81.816C334.856 81.3493 335.692 81.116 336.737 81.116C337.428 81.116 338.03 81.2233 338.543 81.438C339.066 81.6433 339.472 81.942 339.761 82.334C340.05 82.726 340.195 83.1833 340.195 83.706C340.195 84.21 340.06 84.6487 339.789 85.022C339.518 85.386 339.131 85.666 338.627 85.862ZM334.315 83.734C334.315 84.2753 334.53 84.7047 334.959 85.022C335.388 85.3393 335.981 85.498 336.737 85.498C337.493 85.498 338.086 85.3393 338.515 85.022C338.954 84.7047 339.173 84.28 339.173 83.748C339.173 83.1973 338.949 82.7633 338.501 82.446C338.062 82.1287 337.474 81.97 336.737 81.97C335.99 81.97 335.398 82.1287 334.959 82.446C334.53 82.7633 334.315 83.1927 334.315 83.734ZM336.737 90.23C337.605 90.23 338.282 90.0527 338.767 89.698C339.262 89.3433 339.509 88.8627 339.509 88.256C339.509 87.6493 339.262 87.1733 338.767 86.828C338.282 86.4733 337.605 86.296 336.737 86.296C335.878 86.296 335.202 86.4733 334.707 86.828C334.222 87.1733 333.979 87.6493 333.979 88.256C333.979 88.872 334.222 89.3573 334.707 89.712C335.192 90.0573 335.869 90.23 336.737 90.23Z" fill="#1E0D03"/>
</g>
<defs>
<filter id="filter0_d_20_501" x="0" y="70" width="167" height="146" filterUnits="userSpaceOnUse" color-interpolation-filters="sRGB">
<feFlood flood-opacity="0" result="BackgroundImageFix"/>
<feColorMatrix in="SourceAlpha" type="matrix" values="0 0 0 0 0 0 0 0 0 0 0 0 0 0 0 0 0 0 127 0" result="hardAlpha"/>
<feOffset/>
<feGaussianBlur stdDeviation="25"/>
<feColorMatrix type="matrix" values="0 0 0 0 0.196487 0 0 0 0 0.196487 0 0 0 0 0.279476 0 0 0 0.25 0"/>
<feBlend mode="multiply" in2="BackgroundImageFix" result="effect1_dropShadow_20_501"/>
<feBlend mode="normal" in="SourceGraphic" in2="effect1_dropShadow_20_501" result="shape"/>
</filter>
<filter id="filter1_d_20_501" x="241" y="13" width="163" height="146" filterUnits="userSpaceOnUse" color-interpolation-filters="sRGB">
<feFlood flood-opacity="0" result="BackgroundImageFix"/>
<feColorMatrix in="SourceAlpha" type="matrix" values="0 0 0 0 0 0 0 0 0 0 0 0 0 0 0 0 0 0 127 0" result="hardAlpha"/>
<feOffset/>
<feGaussianBlur stdDeviation="25"/>
<feColorMatrix type="matrix" values="0 0 0 0 0.196487 0 0 0 0 0.196487 0 0 0 0 0.279476 0 0 0 0.25 0"/>
<feBlend mode="multiply" in2="BackgroundImageFix" result="effect1_dropShadow_20_501"/>
<feBlend mode="normal" in="SourceGraphic" in2="effect1_dropShadow_20_501" result="shape"/>
</filter>
</defs>
</svg>
