<svg width="408" height="272" viewBox="0 0 408 272" fill="none" xmlns="http://www.w3.org/2000/svg">
<path d="M329 136C329 103.801 316.374 72.8851 293.832 49.8921C271.29 26.8992 240.631 13.6624 208.438 13.0242C176.245 12.3859 145.085 24.3972 121.65 46.4786C98.2148 68.5601 84.3729 98.9509 83.0966 131.125C81.8204 163.299 93.2117 194.691 114.824 218.559C136.437 242.427 166.547 256.869 198.69 258.783C230.832 260.696 262.444 249.929 286.736 228.794C311.028 207.659 326.063 177.841 328.614 145.742L261.176 140.384C260.028 154.828 253.262 168.247 242.331 177.757C231.4 187.268 217.175 192.113 202.71 191.252C188.246 190.391 174.697 183.892 164.971 173.152C155.245 162.411 150.119 148.285 150.693 133.806C151.268 119.328 157.497 105.652 168.042 95.7154C178.588 85.7787 192.61 80.3737 207.097 80.6609C221.584 80.9481 235.381 86.9046 245.524 97.2515C255.668 107.598 261.35 121.51 261.35 136H329Z" fill="#4F75FF"/>
<path d="M206 13C223.447 13 240.694 16.7116 256.596 23.8882C272.498 31.0649 286.692 41.5424 298.234 54.6252C309.777 67.7079 318.404 83.0964 323.543 99.769C328.682 116.442 330.215 134.017 328.041 151.327C325.867 168.638 320.035 185.288 310.933 200.172C301.831 215.056 289.666 227.833 275.247 237.656C260.828 247.478 244.484 254.12 227.301 257.141C210.118 260.163 192.489 259.494 175.584 255.18L192.313 189.631C199.92 191.572 207.853 191.873 215.586 190.514C223.318 189.154 230.673 186.165 237.161 181.745C243.65 177.325 249.124 171.575 253.22 164.877C257.316 158.18 259.94 150.687 260.919 142.897C261.897 135.108 261.207 127.199 258.894 119.696C256.582 112.193 252.699 105.269 247.505 99.3813C242.311 93.4941 235.924 88.7792 228.768 85.5497C221.612 82.3202 213.851 80.65 206 80.65V13Z" fill="#FF8A48"/>
<g filter="url(#filter0_d_20_546)">
<path d="M50 135C50 128.373 55.3726 123 62 123H104C110.627 123 116 128.373 116 135V157C116 163.627 110.627 169 104 169H62C55.3726 169 50 163.627 50 157V135Z" fill="white"/>
<path d="M66.06 145.4C67.0867 145.456 67.866 145.736 68.398 146.24C68.9393 146.735 69.21 147.383 69.21 148.186C69.21 148.746 69.0747 149.245 68.804 149.684C68.5333 150.113 68.132 150.454 67.6 150.706C67.068 150.958 66.4193 151.084 65.654 151.084C64.9447 151.084 64.2727 150.972 63.638 150.748C63.0127 150.515 62.5087 150.207 62.126 149.824L62.616 149.026C62.9427 149.362 63.3767 149.637 63.918 149.852C64.4593 150.057 65.038 150.16 65.654 150.16C66.4567 150.16 67.0773 149.987 67.516 149.642C67.9547 149.287 68.174 148.802 68.174 148.186C68.174 147.579 67.9547 147.103 67.516 146.758C67.0773 146.413 66.4147 146.24 65.528 146.24H64.828V145.498L67.544 142.096H62.532V141.2H68.832V141.914L66.06 145.4ZM74.5363 151.084C73.7803 151.084 73.1037 150.883 72.5063 150.482C71.9183 150.081 71.4563 149.507 71.1203 148.76C70.7937 148.004 70.6303 147.117 70.6303 146.1C70.6303 145.083 70.7937 144.201 71.1203 143.454C71.4563 142.698 71.9183 142.119 72.5063 141.718C73.1037 141.317 73.7803 141.116 74.5363 141.116C75.2923 141.116 75.9643 141.317 76.5523 141.718C77.1497 142.119 77.6163 142.698 77.9523 143.454C78.2883 144.201 78.4563 145.083 78.4563 146.1C78.4563 147.117 78.2883 148.004 77.9523 148.76C77.6163 149.507 77.1497 150.081 76.5523 150.482C75.9643 150.883 75.2923 151.084 74.5363 151.084ZM74.5363 150.16C75.1057 150.16 75.605 150.001 76.0343 149.684C76.473 149.367 76.8137 148.905 77.0563 148.298C77.299 147.691 77.4203 146.959 77.4203 146.1C77.4203 145.241 77.299 144.509 77.0563 143.902C76.8137 143.295 76.473 142.833 76.0343 142.516C75.605 142.199 75.1057 142.04 74.5363 142.04C73.967 142.04 73.463 142.199 73.0243 142.516C72.595 142.833 72.259 143.295 72.0163 143.902C71.7737 144.509 71.6523 145.241 71.6523 146.1C71.6523 146.959 71.7737 147.691 72.0163 148.298C72.259 148.905 72.595 149.367 73.0243 149.684C73.463 150.001 73.967 150.16 74.5363 150.16ZM86.5645 150.104V151H79.6905V150.286L83.7645 146.296C84.2779 145.792 84.6232 145.358 84.8005 144.994C84.9872 144.621 85.0805 144.247 85.0805 143.874C85.0805 143.295 84.8799 142.847 84.4785 142.53C84.0865 142.203 83.5219 142.04 82.7845 142.04C81.6365 142.04 80.7452 142.404 80.1105 143.132L79.3965 142.516C79.7792 142.068 80.2645 141.723 80.8525 141.48C81.4499 141.237 82.1219 141.116 82.8685 141.116C83.8672 141.116 84.6559 141.354 85.2345 141.83C85.8225 142.297 86.1165 142.941 86.1165 143.762C86.1165 144.266 86.0045 144.751 85.7805 145.218C85.5565 145.685 85.1319 146.221 84.5065 146.828L81.1745 150.104H86.5645ZM90.4056 145.218C91.8242 145.218 92.8556 145.475 93.4996 145.988C94.1529 146.492 94.4796 147.201 94.4796 148.116C94.4796 148.685 94.3442 149.194 94.0736 149.642C93.8122 150.09 93.4156 150.445 92.8836 150.706C92.3516 150.958 91.6982 151.084 90.9236 151.084C90.2236 151.084 89.5562 150.972 88.9216 150.748C88.2962 150.515 87.7922 150.207 87.4096 149.824L87.8996 149.026C88.2262 149.362 88.6556 149.637 89.1876 149.852C89.7196 150.057 90.2936 150.16 90.9096 150.16C91.7216 150.16 92.3469 149.978 92.7856 149.614C93.2336 149.25 93.4576 148.765 93.4576 148.158C93.4576 147.486 93.2056 146.977 92.7016 146.632C92.2069 146.287 91.3669 146.114 90.1816 146.114H88.0956L88.5996 141.2H93.9616V142.096H89.4816L89.1456 145.218H90.4056ZM99.8193 145.134C100.463 145.134 101.033 145.255 101.527 145.498C102.031 145.741 102.423 146.086 102.703 146.534C102.983 146.973 103.123 147.486 103.123 148.074C103.123 148.671 102.979 149.199 102.689 149.656C102.4 150.113 101.999 150.468 101.485 150.72C100.981 150.963 100.412 151.084 99.7773 151.084C98.4799 151.084 97.4859 150.659 96.7953 149.81C96.1046 148.951 95.7593 147.743 95.7593 146.184C95.7593 145.092 95.9459 144.168 96.3193 143.412C96.6926 142.656 97.2153 142.087 97.8873 141.704C98.5593 141.312 99.3433 141.116 100.239 141.116C101.21 141.116 101.985 141.293 102.563 141.648L102.157 142.46C101.691 142.152 101.056 141.998 100.253 141.998C99.1706 141.998 98.3213 142.343 97.7053 143.034C97.0893 143.715 96.7812 144.709 96.7812 146.016C96.7812 146.249 96.7953 146.515 96.8233 146.814C97.0659 146.282 97.4533 145.871 97.9853 145.582C98.5173 145.283 99.1286 145.134 99.8193 145.134ZM99.7353 150.23C100.445 150.23 101.019 150.039 101.457 149.656C101.905 149.264 102.129 148.746 102.129 148.102C102.129 147.458 101.905 146.945 101.457 146.562C101.019 146.179 100.421 145.988 99.6653 145.988C99.1706 145.988 98.7319 146.081 98.3493 146.268C97.9759 146.455 97.6819 146.711 97.4673 147.038C97.2526 147.365 97.1453 147.729 97.1453 148.13C97.1453 148.503 97.2433 148.849 97.4393 149.166C97.6446 149.483 97.9433 149.74 98.3353 149.936C98.7273 150.132 99.1939 150.23 99.7353 150.23Z" fill="#1E0D03"/>
</g>
<g filter="url(#filter1_d_20_546)">
<path d="M292 140C292 133.373 297.373 128 304 128H346C352.627 128 358 133.373 358 140V162C358 168.627 352.627 174 346 174H304C297.373 174 292 168.627 292 162V140Z" fill="white"/>
<path d="M311.42 155.104V156H304.546V155.286L308.62 151.296C309.133 150.792 309.479 150.358 309.656 149.994C309.843 149.621 309.936 149.247 309.936 148.874C309.936 148.295 309.735 147.847 309.334 147.53C308.942 147.203 308.377 147.04 307.64 147.04C306.492 147.04 305.601 147.404 304.966 148.132L304.252 147.516C304.635 147.068 305.12 146.723 305.708 146.48C306.305 146.237 306.977 146.116 307.724 146.116C308.723 146.116 309.511 146.354 310.09 146.83C310.678 147.297 310.972 147.941 310.972 148.762C310.972 149.266 310.86 149.751 310.636 150.218C310.412 150.685 309.987 151.221 309.362 151.828L306.03 155.104H311.42ZM318.299 150.862C318.915 151.067 319.386 151.375 319.713 151.786C320.049 152.197 320.217 152.691 320.217 153.27C320.217 153.839 320.063 154.339 319.755 154.768C319.447 155.188 319.004 155.515 318.425 155.748C317.856 155.972 317.184 156.084 316.409 156.084C315.233 156.084 314.309 155.832 313.637 155.328C312.965 154.824 312.629 154.138 312.629 153.27C312.629 152.682 312.788 152.187 313.105 151.786C313.432 151.375 313.903 151.067 314.519 150.862C314.015 150.666 313.632 150.386 313.371 150.022C313.11 149.649 312.979 149.21 312.979 148.706C312.979 147.913 313.287 147.283 313.903 146.816C314.528 146.349 315.364 146.116 316.409 146.116C317.1 146.116 317.702 146.223 318.215 146.438C318.738 146.643 319.144 146.942 319.433 147.334C319.722 147.726 319.867 148.183 319.867 148.706C319.867 149.21 319.732 149.649 319.461 150.022C319.19 150.386 318.803 150.666 318.299 150.862ZM313.987 148.734C313.987 149.275 314.202 149.705 314.631 150.022C315.06 150.339 315.653 150.498 316.409 150.498C317.165 150.498 317.758 150.339 318.187 150.022C318.626 149.705 318.845 149.28 318.845 148.748C318.845 148.197 318.621 147.763 318.173 147.446C317.734 147.129 317.146 146.97 316.409 146.97C315.662 146.97 315.07 147.129 314.631 147.446C314.202 147.763 313.987 148.193 313.987 148.734ZM316.409 155.23C317.277 155.23 317.954 155.053 318.439 154.698C318.934 154.343 319.181 153.863 319.181 153.256C319.181 152.649 318.934 152.173 318.439 151.828C317.954 151.473 317.277 151.296 316.409 151.296C315.55 151.296 314.874 151.473 314.379 151.828C313.894 152.173 313.651 152.649 313.651 153.256C313.651 153.872 313.894 154.357 314.379 154.712C314.864 155.057 315.541 155.23 316.409 155.23ZM324.945 150.4C325.971 150.456 326.751 150.736 327.283 151.24C327.824 151.735 328.095 152.383 328.095 153.186C328.095 153.746 327.959 154.245 327.689 154.684C327.418 155.113 327.017 155.454 326.485 155.706C325.953 155.958 325.304 156.084 324.539 156.084C323.829 156.084 323.157 155.972 322.523 155.748C321.897 155.515 321.393 155.207 321.011 154.824L321.501 154.026C321.827 154.362 322.261 154.637 322.803 154.852C323.344 155.057 323.923 155.16 324.539 155.16C325.341 155.16 325.962 154.987 326.401 154.642C326.839 154.287 327.059 153.802 327.059 153.186C327.059 152.579 326.839 152.103 326.401 151.758C325.962 151.413 325.299 151.24 324.413 151.24H323.713V150.498L326.429 147.096H321.417V146.2H327.717V146.914L324.945 150.4ZM333.421 156.084C332.665 156.084 331.988 155.883 331.391 155.482C330.803 155.081 330.341 154.507 330.005 153.76C329.678 153.004 329.515 152.117 329.515 151.1C329.515 150.083 329.678 149.201 330.005 148.454C330.341 147.698 330.803 147.119 331.391 146.718C331.988 146.317 332.665 146.116 333.421 146.116C334.177 146.116 334.849 146.317 335.437 146.718C336.034 147.119 336.501 147.698 336.837 148.454C337.173 149.201 337.341 150.083 337.341 151.1C337.341 152.117 337.173 153.004 336.837 153.76C336.501 154.507 336.034 155.081 335.437 155.482C334.849 155.883 334.177 156.084 333.421 156.084ZM333.421 155.16C333.99 155.16 334.49 155.001 334.919 154.684C335.358 154.367 335.698 153.905 335.941 153.298C336.184 152.691 336.305 151.959 336.305 151.1C336.305 150.241 336.184 149.509 335.941 148.902C335.698 148.295 335.358 147.833 334.919 147.516C334.49 147.199 333.99 147.04 333.421 147.04C332.852 147.04 332.348 147.199 331.909 147.516C331.48 147.833 331.144 148.295 330.901 148.902C330.658 149.509 330.537 150.241 330.537 151.1C330.537 151.959 330.658 152.691 330.901 153.298C331.144 153.905 331.48 154.367 331.909 154.684C332.348 155.001 332.852 155.16 333.421 155.16ZM345.449 155.104V156H338.575V155.286L342.649 151.296C343.163 150.792 343.508 150.358 343.685 149.994C343.872 149.621 343.965 149.247 343.965 148.874C343.965 148.295 343.765 147.847 343.363 147.53C342.971 147.203 342.407 147.04 341.669 147.04C340.521 147.04 339.63 147.404 338.995 148.132L338.281 147.516C338.664 147.068 339.149 146.723 339.737 146.48C340.335 146.237 341.007 146.116 341.753 146.116C342.752 146.116 343.541 146.354 344.119 146.83C344.707 147.297 345.001 147.941 345.001 148.762C345.001 149.266 344.889 149.751 344.665 150.218C344.441 150.685 344.017 151.221 343.391 151.828L340.059 155.104H345.449Z" fill="#1E0D03"/>
</g>
<defs>
<filter id="filter0_d_20_546" x="0" y="73" width="166" height="146" filterUnits="userSpaceOnUse" color-interpolation-filters="sRGB">
<feFlood flood-opacity="0" result="BackgroundImageFix"/>
<feColorMatrix in="SourceAlpha" type="matrix" values="0 0 0 0 0 0 0 0 0 0 0 0 0 0 0 0 0 0 127 0" result="hardAlpha"/>
<feOffset/>
<feGaussianBlur stdDeviation="25"/>
<feColorMatrix type="matrix" values="0 0 0 0 0.196487 0 0 0 0 0.196487 0 0 0 0 0.279476 0 0 0 0.25 0"/>
<feBlend mode="multiply" in2="BackgroundImageFix" result="effect1_dropShadow_20_546"/>
<feBlend mode="normal" in="SourceGraphic" in2="effect1_dropShadow_20_546" result="shape"/>
</filter>
<filter id="filter1_d_20_546" x="242" y="78" width="166" height="146" filterUnits="userSpaceOnUse" color-interpolation-filters="sRGB">
<feFlood flood-opacity="0" result="BackgroundImageFix"/>
<feColorMatrix in="SourceAlpha" type="matrix" values="0 0 0 0 0 0 0 0 0 0 0 0 0 0 0 0 0 0 127 0" result="hardAlpha"/>
<feOffset/>
<feGaussianBlur stdDeviation="25"/>
<feColorMatrix type="matrix" values="0 0 0 0 0.196487 0 0 0 0 0.196487 0 0 0 0 0.279476 0 0 0 0.25 0"/>
<feBlend mode="multiply" in2="BackgroundImageFix" result="effect1_dropShadow_20_546"/>
<feBlend mode="normal" in="SourceGraphic" in2="effect1_dropShadow_20_546" result="shape"/>
</filter>
</defs>
</svg>
