<svg width="106" height="24" viewBox="0 0 106 24" fill="none" xmlns="http://www.w3.org/2000/svg">
<path d="M0 12C0 5.37258 5.37258 0 12 0C18.6274 0 24 5.37258 24 12C24 18.6274 18.6274 24 12 24C5.37258 24 0 18.6274 0 12Z" fill="white"/>
<rect x="1" y="1" width="22" height="22" rx="11" stroke="#27AEF9" stroke-width="2"/>
<path d="M35.4891 8.918H32.1291V7.7H40.2351V8.918H36.8751V17.5H35.4891V8.918ZM45.7359 10.01C46.6785 10.01 47.4252 10.2853 47.9759 10.836C48.5359 11.3773 48.8159 12.1753 48.8159 13.23V17.5H47.4719V13.384C47.4719 12.6653 47.2992 12.124 46.9539 11.76C46.6085 11.396 46.1139 11.214 45.4699 11.214C44.7419 11.214 44.1679 11.4287 43.7479 11.858C43.3279 12.278 43.1179 12.8847 43.1179 13.678V17.5H41.7739V7.112H43.1179V11.13C43.3979 10.7753 43.7619 10.5 44.2099 10.304C44.6672 10.108 45.1759 10.01 45.7359 10.01ZM58.2602 13.832C58.2602 13.9347 58.2509 14.07 58.2322 14.238H52.2122C52.2962 14.8913 52.5809 15.4187 53.0662 15.82C53.5609 16.212 54.1722 16.408 54.9002 16.408C55.7869 16.408 56.5009 16.1093 57.0422 15.512L57.7842 16.38C57.4482 16.772 57.0282 17.0707 56.5242 17.276C56.0295 17.4813 55.4742 17.584 54.8582 17.584C54.0742 17.584 53.3789 17.4253 52.7722 17.108C52.1655 16.7813 51.6942 16.3287 51.3582 15.75C51.0315 15.1713 50.8682 14.518 50.8682 13.79C50.8682 13.0713 51.0269 12.4227 51.3442 11.844C51.6709 11.2653 52.1142 10.8173 52.6742 10.5C53.2435 10.1733 53.8829 10.01 54.5922 10.01C55.3015 10.01 55.9315 10.1733 56.4822 10.5C57.0422 10.8173 57.4762 11.2653 57.7842 11.844C58.1015 12.4227 58.2602 13.0853 58.2602 13.832ZM54.5922 11.144C53.9482 11.144 53.4069 11.34 52.9682 11.732C52.5389 12.124 52.2869 12.6373 52.2122 13.272H56.9722C56.8975 12.6467 56.6409 12.138 56.2022 11.746C55.7729 11.3447 55.2362 11.144 54.5922 11.144ZM63.5145 17.584C62.7771 17.584 62.1145 17.4207 61.5265 17.094C60.9385 16.7673 60.4765 16.3193 60.1405 15.75C59.8138 15.1713 59.6505 14.518 59.6505 13.79C59.6505 13.062 59.8138 12.4133 60.1405 11.844C60.4765 11.2653 60.9385 10.8173 61.5265 10.5C62.1145 10.1733 62.7771 10.01 63.5145 10.01C64.2518 10.01 64.9098 10.1733 65.4885 10.5C66.0765 10.8173 66.5338 11.2653 66.8605 11.844C67.1965 12.4133 67.3645 13.062 67.3645 13.79C67.3645 14.518 67.1965 15.1713 66.8605 15.75C66.5338 16.3193 66.0765 16.7673 65.4885 17.094C64.9098 17.4207 64.2518 17.584 63.5145 17.584ZM63.5145 16.408C63.9905 16.408 64.4151 16.3007 64.7885 16.086C65.1711 15.862 65.4698 15.554 65.6845 15.162C65.8991 14.7607 66.0065 14.3033 66.0065 13.79C66.0065 13.2767 65.8991 12.824 65.6845 12.432C65.4698 12.0307 65.1711 11.7227 64.7885 11.508C64.4151 11.2933 63.9905 11.186 63.5145 11.186C63.0385 11.186 62.6091 11.2933 62.2265 11.508C61.8531 11.7227 61.5545 12.0307 61.3305 12.432C61.1158 12.824 61.0085 13.2767 61.0085 13.79C61.0085 14.3033 61.1158 14.7607 61.3305 15.162C61.5545 15.554 61.8531 15.862 62.2265 16.086C62.6091 16.3007 63.0385 16.408 63.5145 16.408ZM77.5749 17.066C77.3789 17.234 77.1363 17.3647 76.8469 17.458C76.5576 17.542 76.2589 17.584 75.9509 17.584C75.2043 17.584 74.6256 17.3833 74.2149 16.982C73.8043 16.5807 73.5989 16.0067 73.5989 15.26V11.186H72.3389V10.08H73.5989V8.456H74.9429V10.08H77.0709V11.186H74.9429V15.204C74.9429 15.6053 75.0409 15.9133 75.2369 16.128C75.4423 16.3427 75.7316 16.45 76.1049 16.45C76.5156 16.45 76.8656 16.3333 77.1549 16.1L77.5749 17.066ZM86.3258 10.08V17.5H85.0518V16.38C84.7812 16.7627 84.4218 17.0613 83.9738 17.276C83.5352 17.4813 83.0545 17.584 82.5318 17.584C81.5425 17.584 80.7632 17.3133 80.1938 16.772C79.6245 16.2213 79.3398 15.414 79.3398 14.35V10.08H80.6838V14.196C80.6838 14.9147 80.8565 15.4607 81.2018 15.834C81.5472 16.198 82.0418 16.38 82.6858 16.38C83.3952 16.38 83.9552 16.1653 84.3658 15.736C84.7765 15.3067 84.9818 14.7 84.9818 13.916V10.08H86.3258ZM91.7964 10.01C92.8231 10.01 93.6071 10.262 94.1484 10.766C94.6991 11.27 94.9744 12.0213 94.9744 13.02V17.5H93.7004V16.52C93.4764 16.8653 93.1544 17.1313 92.7344 17.318C92.3238 17.4953 91.8338 17.584 91.2644 17.584C90.4338 17.584 89.7664 17.3833 89.2624 16.982C88.7678 16.5807 88.5204 16.0533 88.5204 15.4C88.5204 14.7467 88.7584 14.224 89.2344 13.832C89.7104 13.4307 90.4664 13.23 91.5024 13.23H93.6304V12.964C93.6304 12.3853 93.4624 11.942 93.1264 11.634C92.7904 11.326 92.2958 11.172 91.6424 11.172C91.2038 11.172 90.7744 11.2467 90.3544 11.396C89.9344 11.536 89.5798 11.7273 89.2904 11.97L88.7304 10.962C89.1131 10.654 89.5704 10.4207 90.1024 10.262C90.6344 10.094 91.1991 10.01 91.7964 10.01ZM91.4884 16.548C92.0018 16.548 92.4451 16.436 92.8184 16.212C93.1918 15.9787 93.4624 15.652 93.6304 15.232V14.196H91.5584C90.4198 14.196 89.8504 14.5787 89.8504 15.344C89.8504 15.7173 89.9951 16.0113 90.2844 16.226C90.5738 16.4407 90.9751 16.548 91.4884 16.548ZM93.1684 9.002L91.8944 8.218L90.6204 9.002H89.3884L91.2644 7.602H92.5244L94.4004 9.002H93.1684ZM92.0484 6.188H93.5744L95.2124 7.77H94.1204L92.0484 6.188ZM101.634 10.01C102.576 10.01 103.323 10.2853 103.874 10.836C104.434 11.3773 104.714 12.1753 104.714 13.23V17.5H103.37V13.384C103.37 12.6653 103.197 12.124 102.852 11.76C102.506 11.396 102.012 11.214 101.368 11.214C100.64 11.214 100.066 11.4287 99.6456 11.858C99.2256 12.278 99.0156 12.8847 99.0156 13.678V17.5H97.6716V10.08H98.9596V11.2C99.2303 10.8173 99.5943 10.5233 100.052 10.318C100.518 10.1127 101.046 10.01 101.634 10.01Z" fill="#1E0D03"/>
</svg>
