<svg width="109" height="24" viewBox="0 0 109 24" fill="none" xmlns="http://www.w3.org/2000/svg">
<path d="M0 12C0 5.37258 5.37258 0 12 0C18.6274 0 24 5.37258 24 12C24 18.6274 18.6274 24 12 24C5.37258 24 0 18.6274 0 12Z" fill="white"/>
<rect x="1" y="1" width="22" height="22" rx="11" stroke="#27AEF9" stroke-width="2"/>
<path d="M35.4295 8.918H32.0695V7.7H40.1755V8.918H36.8155V17.5H35.4295V8.918ZM45.6763 10.01C46.619 10.01 47.3656 10.2853 47.9163 10.836C48.4763 11.3773 48.7563 12.1753 48.7563 13.23V17.5H47.4123V13.384C47.4123 12.6653 47.2396 12.124 46.8943 11.76C46.549 11.396 46.0543 11.214 45.4103 11.214C44.6823 11.214 44.1083 11.4287 43.6883 11.858C43.2683 12.278 43.0583 12.8847 43.0583 13.678V17.5H41.7143V7.112H43.0583V11.13C43.3383 10.7753 43.7023 10.5 44.1503 10.304C44.6076 10.108 45.1163 10.01 45.6763 10.01ZM58.2006 13.832C58.2006 13.9347 58.1913 14.07 58.1726 14.238H52.1526C52.2366 14.8913 52.5213 15.4187 53.0066 15.82C53.5013 16.212 54.1126 16.408 54.8406 16.408C55.7273 16.408 56.4413 16.1093 56.9826 15.512L57.7246 16.38C57.3886 16.772 56.9686 17.0707 56.4646 17.276C55.97 17.4813 55.4146 17.584 54.7986 17.584C54.0146 17.584 53.3193 17.4253 52.7126 17.108C52.106 16.7813 51.6346 16.3287 51.2986 15.75C50.972 15.1713 50.8086 14.518 50.8086 13.79C50.8086 13.0713 50.9673 12.4227 51.2846 11.844C51.6113 11.2653 52.0546 10.8173 52.6146 10.5C53.184 10.1733 53.8233 10.01 54.5326 10.01C55.242 10.01 55.872 10.1733 56.4226 10.5C56.9826 10.8173 57.4166 11.2653 57.7246 11.844C58.042 12.4227 58.2006 13.0853 58.2006 13.832ZM54.5326 11.144C53.8886 11.144 53.3473 11.34 52.9086 11.732C52.4793 12.124 52.2273 12.6373 52.1526 13.272H56.9126C56.838 12.6467 56.5813 12.138 56.1426 11.746C55.7133 11.3447 55.1766 11.144 54.5326 11.144ZM63.4549 17.584C62.7176 17.584 62.0549 17.4207 61.4669 17.094C60.8789 16.7673 60.4169 16.3193 60.0809 15.75C59.7542 15.1713 59.5909 14.518 59.5909 13.79C59.5909 13.062 59.7542 12.4133 60.0809 11.844C60.4169 11.2653 60.8789 10.8173 61.4669 10.5C62.0549 10.1733 62.7176 10.01 63.4549 10.01C64.1922 10.01 64.8502 10.1733 65.4289 10.5C66.0169 10.8173 66.4742 11.2653 66.8009 11.844C67.1369 12.4133 67.3049 13.062 67.3049 13.79C67.3049 14.518 67.1369 15.1713 66.8009 15.75C66.4742 16.3193 66.0169 16.7673 65.4289 17.094C64.8502 17.4207 64.1922 17.584 63.4549 17.584ZM63.4549 16.408C63.9309 16.408 64.3556 16.3007 64.7289 16.086C65.1116 15.862 65.4102 15.554 65.6249 15.162C65.8396 14.7607 65.9469 14.3033 65.9469 13.79C65.9469 13.2767 65.8396 12.824 65.6249 12.432C65.4102 12.0307 65.1116 11.7227 64.7289 11.508C64.3556 11.2933 63.9309 11.186 63.4549 11.186C62.9789 11.186 62.5496 11.2933 62.1669 11.508C61.7936 11.7227 61.4949 12.0307 61.2709 12.432C61.0562 12.824 60.9489 13.2767 60.9489 13.79C60.9489 14.3033 61.0562 14.7607 61.2709 15.162C61.4949 15.554 61.7936 15.862 62.1669 16.086C62.5496 16.3007 62.9789 16.408 63.4549 16.408ZM77.3054 10.01C78.248 10.01 78.9947 10.2853 79.5454 10.836C80.1054 11.3773 80.3854 12.1753 80.3854 13.23V17.5H79.0414V13.384C79.0414 12.6653 78.8687 12.124 78.5234 11.76C78.178 11.396 77.6834 11.214 77.0394 11.214C76.3114 11.214 75.7374 11.4287 75.3174 11.858C74.8974 12.278 74.6874 12.8847 74.6874 13.678V17.5H73.3434V10.08H74.6314V11.2C74.902 10.8173 75.266 10.5233 75.7234 10.318C76.19 10.1127 76.7174 10.01 77.3054 10.01ZM90.2217 10.08V16.492C90.2217 17.7893 89.8997 18.746 89.2557 19.362C88.6117 19.9873 87.6504 20.3 86.3717 20.3C85.6717 20.3 85.0044 20.202 84.3697 20.006C83.735 19.8193 83.2217 19.5487 82.8297 19.194L83.4737 18.158C83.819 18.4567 84.2437 18.69 84.7477 18.858C85.261 19.0353 85.7884 19.124 86.3297 19.124C87.1977 19.124 87.837 18.9187 88.2477 18.508C88.6677 18.0973 88.8777 17.472 88.8777 16.632V16.044C88.5604 16.4267 88.1684 16.716 87.7017 16.912C87.2444 17.0987 86.745 17.192 86.2037 17.192C85.4944 17.192 84.8504 17.0427 84.2717 16.744C83.7024 16.436 83.2544 16.0113 82.9277 15.47C82.601 14.9193 82.4377 14.294 82.4377 13.594C82.4377 12.894 82.601 12.2733 82.9277 11.732C83.2544 11.1813 83.7024 10.7567 84.2717 10.458C84.8504 10.1593 85.4944 10.01 86.2037 10.01C86.7637 10.01 87.2817 10.1127 87.7577 10.318C88.243 10.5233 88.6397 10.8267 88.9477 11.228V10.08H90.2217ZM86.3577 16.016C86.843 16.016 87.277 15.9133 87.6597 15.708C88.0517 15.5027 88.355 15.218 88.5697 14.854C88.7937 14.4807 88.9057 14.0607 88.9057 13.594C88.9057 12.8753 88.6677 12.2967 88.1917 11.858C87.7157 11.41 87.1044 11.186 86.3577 11.186C85.6017 11.186 84.9857 11.41 84.5097 11.858C84.0337 12.2967 83.7957 12.8753 83.7957 13.594C83.7957 14.0607 83.903 14.4807 84.1177 14.854C84.3417 15.218 84.645 15.5027 85.0277 15.708C85.4197 15.9133 85.863 16.016 86.3577 16.016ZM95.7017 10.01C96.7284 10.01 97.5124 10.262 98.0537 10.766C98.6044 11.27 98.8797 12.0213 98.8797 13.02V17.5H97.6057V16.52C97.3817 16.8653 97.0597 17.1313 96.6397 17.318C96.229 17.4953 95.739 17.584 95.1697 17.584C94.339 17.584 93.6717 17.3833 93.1677 16.982C92.673 16.5807 92.4257 16.0533 92.4257 15.4C92.4257 14.7467 92.6637 14.224 93.1397 13.832C93.6157 13.4307 94.3717 13.23 95.4077 13.23H97.5357V12.964C97.5357 12.3853 97.3677 11.942 97.0317 11.634C96.6957 11.326 96.201 11.172 95.5477 11.172C95.109 11.172 94.6797 11.2467 94.2597 11.396C93.8397 11.536 93.485 11.7273 93.1957 11.97L92.6357 10.962C93.0184 10.654 93.4757 10.4207 94.0077 10.262C94.5397 10.094 95.1044 10.01 95.7017 10.01ZM95.3937 16.548C95.907 16.548 96.3504 16.436 96.7237 16.212C97.097 15.9787 97.3677 15.652 97.5357 15.232V14.196H95.4637C94.325 14.196 93.7557 14.5787 93.7557 15.344C93.7557 15.7173 93.9004 16.0113 94.1897 16.226C94.479 16.4407 94.8804 16.548 95.3937 16.548ZM93.2377 7.182H94.9457L96.8497 9.002H95.5897L93.2377 7.182ZM108.006 10.08L104.408 18.242C104.091 18.998 103.718 19.53 103.288 19.838C102.868 20.146 102.36 20.3 101.762 20.3C101.398 20.3 101.044 20.2393 100.698 20.118C100.362 20.006 100.082 19.838 99.8582 19.614L100.432 18.606C100.815 18.97 101.258 19.152 101.762 19.152C102.089 19.152 102.36 19.0633 102.574 18.886C102.798 18.718 102.999 18.424 103.176 18.004L103.414 17.486L100.138 10.08H101.538L104.128 16.016L106.69 10.08H108.006Z" fill="#1E0D03"/>
</svg>
