<svg width="24" height="24" viewBox="0 0 24 24" fill="none" xmlns="http://www.w3.org/2000/svg">
<rect x="0.5" y="0.5" width="23" height="23" rx="3.5" fill="#27AEF9"/>
<path d="M18.7319 7.2958C18.639 7.20207 18.5284 7.12768 18.4065 7.07691C18.2846 7.02614 18.1539 7 18.0219 7C17.8899 7 17.7592 7.02614 17.6373 7.07691C17.5155 7.12768 17.4049 7.20207 17.3119 7.2958L9.86192 14.7558L6.73192 11.6158C6.6354 11.5226 6.52146 11.4492 6.3966 11.4C6.27175 11.3508 6.13843 11.3267 6.00424 11.329C5.87006 11.3314 5.73765 11.3601 5.61458 11.4136C5.4915 11.4671 5.38016 11.5443 5.28692 11.6408C5.19368 11.7373 5.12037 11.8513 5.07117 11.9761C5.02196 12.101 4.99783 12.2343 5.00015 12.3685C5.00247 12.5027 5.0312 12.6351 5.0847 12.7581C5.13819 12.8812 5.2154 12.9926 5.31192 13.0858L9.15192 16.9258C9.24489 17.0195 9.35549 17.0939 9.47735 17.1447C9.59921 17.1955 9.72991 17.2216 9.86192 17.2216C9.99393 17.2216 10.1246 17.1955 10.2465 17.1447C10.3684 17.0939 10.479 17.0195 10.5719 16.9258L18.7319 8.7658C18.8334 8.67216 18.9144 8.5585 18.9698 8.432C19.0252 8.30551 19.0539 8.1689 19.0539 8.0308C19.0539 7.8927 19.0252 7.75609 18.9698 7.62959C18.9144 7.50309 18.8334 7.38944 18.7319 7.2958V7.2958Z" fill="white"/>
<rect x="0.5" y="0.5" width="23" height="23" rx="3.5" stroke="#27AEF9"/>
</svg>
