<svg width="69" height="14" viewBox="0 0 69 14" fill="none" xmlns="http://www.w3.org/2000/svg">
<path opacity="0.5" d="M5.852 11.084C4.88133 11.084 4.004 10.8693 3.22 10.44C2.44533 10.0107 1.834 9.418 1.386 8.662C0.947333 7.89667 0.728 7.04267 0.728 6.1C0.728 5.15733 0.947333 4.308 1.386 3.552C1.834 2.78667 2.45 2.18933 3.234 1.76C4.018 1.33067 4.89533 1.116 5.866 1.116C6.594 1.116 7.266 1.23733 7.882 1.48C8.498 1.72267 9.02067 2.07733 9.45 2.544L8.792 3.202C8.02667 2.42733 7.06067 2.04 5.894 2.04C5.11933 2.04 4.41467 2.21733 3.78 2.572C3.14533 2.92667 2.646 3.412 2.282 4.028C1.92733 4.644 1.75 5.33467 1.75 6.1C1.75 6.86533 1.92733 7.556 2.282 8.172C2.646 8.788 3.14533 9.27333 3.78 9.628C4.41467 9.98267 5.11933 10.16 5.894 10.16C7.07 10.16 8.036 9.768 8.792 8.984L9.45 9.642C9.02067 10.1087 8.49333 10.468 7.868 10.72C7.252 10.9627 6.58 11.084 5.852 11.084ZM14.1304 11.07C13.421 11.07 12.7817 10.9113 12.2124 10.594C11.643 10.2673 11.195 9.81933 10.8684 9.25C10.5417 8.68067 10.3784 8.03667 10.3784 7.318C10.3784 6.59933 10.5417 5.95533 10.8684 5.386C11.195 4.81667 11.643 4.37333 12.2124 4.056C12.7817 3.73867 13.421 3.58 14.1304 3.58C14.8397 3.58 15.479 3.73867 16.0484 4.056C16.6177 4.37333 17.061 4.81667 17.3784 5.386C17.705 5.95533 17.8684 6.59933 17.8684 7.318C17.8684 8.03667 17.705 8.68067 17.3784 9.25C17.061 9.81933 16.6177 10.2673 16.0484 10.594C15.479 10.9113 14.8397 11.07 14.1304 11.07ZM14.1304 10.188C14.653 10.188 15.1197 10.0713 15.5304 9.838C15.9504 9.59533 16.277 9.25467 16.5104 8.816C16.7437 8.37733 16.8604 7.878 16.8604 7.318C16.8604 6.758 16.7437 6.25867 16.5104 5.82C16.277 5.38133 15.9504 5.04533 15.5304 4.812C15.1197 4.56933 14.653 4.448 14.1304 4.448C13.6077 4.448 13.1364 4.56933 12.7164 4.812C12.3057 5.04533 11.979 5.38133 11.7364 5.82C11.503 6.25867 11.3864 6.758 11.3864 7.318C11.3864 7.878 11.503 8.37733 11.7364 8.816C11.979 9.25467 12.3057 9.59533 12.7164 9.838C13.1364 10.0713 13.6077 10.188 14.1304 10.188ZM23.6917 3.58C24.3824 3.58 25.0077 3.73867 25.5677 4.056C26.1277 4.364 26.5664 4.80267 26.8837 5.372C27.2011 5.94133 27.3597 6.59 27.3597 7.318C27.3597 8.05533 27.2011 8.70867 26.8837 9.278C26.5664 9.84733 26.1277 10.2907 25.5677 10.608C25.0171 10.916 24.3917 11.07 23.6917 11.07C23.0944 11.07 22.5531 10.9487 22.0677 10.706C21.5917 10.454 21.1997 10.09 20.8917 9.614V13.716H19.8977V3.636H20.8497V5.092C21.1484 4.60667 21.5404 4.23333 22.0257 3.972C22.5204 3.71067 23.0757 3.58 23.6917 3.58ZM23.6217 10.188C24.1351 10.188 24.6017 10.0713 25.0217 9.838C25.4417 9.59533 25.7684 9.25467 26.0017 8.816C26.2444 8.37733 26.3657 7.878 26.3657 7.318C26.3657 6.758 26.2444 6.26333 26.0017 5.834C25.7684 5.39533 25.4417 5.05467 25.0217 4.812C24.6017 4.56933 24.1351 4.448 23.6217 4.448C23.0991 4.448 22.6277 4.56933 22.2077 4.812C21.7971 5.05467 21.4704 5.39533 21.2277 5.834C20.9944 6.26333 20.8777 6.758 20.8777 7.318C20.8777 7.878 20.9944 8.37733 21.2277 8.816C21.4704 9.25467 21.7971 9.59533 22.2077 9.838C22.6277 10.0713 23.0991 10.188 23.6217 10.188ZM35.3689 3.636L31.6869 11.882C31.3883 12.5727 31.0429 13.0627 30.6509 13.352C30.2589 13.6413 29.7876 13.786 29.2369 13.786C28.8823 13.786 28.5509 13.73 28.2429 13.618C27.9349 13.506 27.6689 13.338 27.4449 13.114L27.9069 12.372C28.2803 12.7453 28.7283 12.932 29.2509 12.932C29.5869 12.932 29.8716 12.8387 30.1049 12.652C30.3476 12.4653 30.5716 12.148 30.7769 11.7L31.0989 10.986L27.8089 3.636H28.8449L31.6169 9.894L34.3889 3.636H35.3689ZM37.7208 5.078C37.9541 4.58333 38.2995 4.21 38.7568 3.958C39.2235 3.706 39.7975 3.58 40.4788 3.58V4.546L40.2408 4.532C39.4661 4.532 38.8595 4.77 38.4208 5.246C37.9821 5.722 37.7628 6.38933 37.7628 7.248V11H36.7688V3.636H37.7208V5.078ZM42.2786 3.636H43.2726V11H42.2786V3.636ZM42.7826 2.026C42.5772 2.026 42.4046 1.956 42.2646 1.816C42.1246 1.676 42.0546 1.508 42.0546 1.312C42.0546 1.12533 42.1246 0.962 42.2646 0.821999C42.4046 0.681999 42.5772 0.611999 42.7826 0.611999C42.9879 0.611999 43.1606 0.681999 43.3006 0.821999C43.4406 0.952666 43.5106 1.11133 43.5106 1.298C43.5106 1.50333 43.4406 1.676 43.3006 1.816C43.1606 1.956 42.9879 2.026 42.7826 2.026ZM52.8563 3.636V10.104C52.8563 11.3547 52.5483 12.2787 51.9323 12.876C51.3257 13.4827 50.4063 13.786 49.1743 13.786C48.493 13.786 47.8443 13.6833 47.2283 13.478C46.6217 13.282 46.127 13.0067 45.7443 12.652L46.2483 11.896C46.603 12.2133 47.0323 12.4607 47.5363 12.638C48.0497 12.8153 48.5863 12.904 49.1463 12.904C50.0797 12.904 50.7657 12.6847 51.2043 12.246C51.643 11.8167 51.8623 11.1447 51.8623 10.23V9.292C51.5543 9.75867 51.1483 10.1133 50.6443 10.356C50.1497 10.5987 49.599 10.72 48.9923 10.72C48.3017 10.72 47.6717 10.5707 47.1023 10.272C46.5423 9.964 46.099 9.53933 45.7723 8.998C45.455 8.44733 45.2963 7.82667 45.2963 7.136C45.2963 6.44533 45.455 5.82933 45.7723 5.288C46.099 4.74667 46.5423 4.32667 47.1023 4.028C47.6623 3.72933 48.2923 3.58 48.9923 3.58C49.6177 3.58 50.1823 3.706 50.6863 3.958C51.1903 4.21 51.5963 4.574 51.9043 5.05V3.636H52.8563ZM49.0903 9.838C49.6223 9.838 50.103 9.726 50.5323 9.502C50.9617 9.26867 51.293 8.94667 51.5263 8.536C51.769 8.12533 51.8903 7.65867 51.8903 7.136C51.8903 6.61333 51.769 6.15133 51.5263 5.75C51.293 5.33933 50.9617 5.022 50.5323 4.798C50.1123 4.56467 49.6317 4.448 49.0903 4.448C48.5583 4.448 48.0777 4.56 47.6483 4.784C47.2283 5.008 46.897 5.32533 46.6543 5.736C46.421 6.14667 46.3043 6.61333 46.3043 7.136C46.3043 7.65867 46.421 8.12533 46.6543 8.536C46.897 8.94667 47.2283 9.26867 47.6483 9.502C48.0777 9.726 48.5583 9.838 49.0903 9.838ZM59.388 3.58C60.312 3.58 61.0447 3.85067 61.586 4.392C62.1367 4.924 62.412 5.70333 62.412 6.73V11H61.418V6.828C61.418 6.06267 61.2267 5.47933 60.844 5.078C60.4613 4.67667 59.9153 4.476 59.206 4.476C58.4127 4.476 57.7827 4.714 57.316 5.19C56.8587 5.65667 56.63 6.30533 56.63 7.136V11H55.636V0.611999H56.63V4.924C56.9007 4.49467 57.274 4.16333 57.75 3.93C58.226 3.69667 58.772 3.58 59.388 3.58ZM68.9886 10.552C68.8019 10.72 68.5686 10.8507 68.2886 10.944C68.0179 11.028 67.7333 11.07 67.4346 11.07C66.7439 11.07 66.2119 10.8833 65.8386 10.51C65.4653 10.1367 65.2786 9.60933 65.2786 8.928V4.476H63.9626V3.636H65.2786V2.026H66.2726V3.636H68.5126V4.476H66.2726V8.872C66.2726 9.31067 66.3799 9.64667 66.5946 9.88C66.8186 10.104 67.1359 10.216 67.5466 10.216C67.7519 10.216 67.9479 10.1833 68.1346 10.118C68.3306 10.0527 68.4986 9.95933 68.6386 9.838L68.9886 10.552Z" fill="#1E0D03"/>
</svg>
