<svg width="20" height="21" viewBox="0 0 20 21" fill="none" xmlns="http://www.w3.org/2000/svg">
<path d="M11 15H5.00001C4.73479 15 4.48044 15.1054 4.2929 15.2929C4.10537 15.4804 4.00001 15.7348 4.00001 16C4.00001 16.2652 4.10537 16.5196 4.2929 16.7071C4.48044 16.8947 4.73479 17 5.00001 17H11C11.2652 17 11.5196 16.8947 11.7071 16.7071C11.8947 16.5196 12 16.2652 12 16C12 15.7348 11.8947 15.4804 11.7071 15.2929C11.5196 15.1054 11.2652 15 11 15ZM7.00001 9.00001H9.00001C9.26522 9.00001 9.51958 8.89465 9.70711 8.70711C9.89465 8.51958 10 8.26522 10 8.00001C10 7.73479 9.89465 7.48044 9.70711 7.2929C9.51958 7.10536 9.26522 7.00001 9.00001 7.00001H7.00001C6.73479 7.00001 6.48044 7.10536 6.2929 7.2929C6.10537 7.48044 6.00001 7.73479 6.00001 8.00001C6.00001 8.26522 6.10537 8.51958 6.2929 8.70711C6.48044 8.89465 6.73479 9.00001 7.00001 9.00001ZM19 11H16V2.00001C16.0007 1.8238 15.9548 1.65053 15.867 1.49775C15.7792 1.34498 15.6526 1.21811 15.5 1.13001C15.348 1.04224 15.1755 0.996033 15 0.996033C14.8245 0.996033 14.652 1.04224 14.5 1.13001L11.5 2.85001L8.50001 1.13001C8.34799 1.04224 8.17554 0.996033 8.00001 0.996033C7.82447 0.996033 7.65203 1.04224 7.50001 1.13001L4.50001 2.85001L1.50001 1.13001C1.34799 1.04224 1.17554 0.996033 1.00001 0.996033C0.824471 0.996033 0.652027 1.04224 0.500008 1.13001C0.347404 1.21811 0.220789 1.34498 0.132986 1.49775C0.0451828 1.65053 -0.000691685 1.8238 7.88288e-06 2.00001V18C7.88288e-06 18.7957 0.316078 19.5587 0.878688 20.1213C1.4413 20.6839 2.20436 21 3.00001 21H17C17.7957 21 18.5587 20.6839 19.1213 20.1213C19.6839 19.5587 20 18.7957 20 18V12C20 11.7348 19.8947 11.4804 19.7071 11.2929C19.5196 11.1054 19.2652 11 19 11ZM3.00001 19C2.73479 19 2.48044 18.8947 2.2929 18.7071C2.10536 18.5196 2.00001 18.2652 2.00001 18V3.73001L4.00001 4.87001C4.15435 4.95062 4.32589 4.99272 4.50001 4.99272C4.67413 4.99272 4.84567 4.95062 5.00001 4.87001L8.00001 3.15001L11 4.87001C11.1543 4.95062 11.3259 4.99272 11.5 4.99272C11.6741 4.99272 11.8457 4.95062 12 4.87001L14 3.73001V18C14.0027 18.3412 14.0636 18.6793 14.18 19H3.00001ZM18 18C18 18.2652 17.8947 18.5196 17.7071 18.7071C17.5196 18.8947 17.2652 19 17 19C16.7348 19 16.4804 18.8947 16.2929 18.7071C16.1054 18.5196 16 18.2652 16 18V13H18V18ZM11 11H5.00001C4.73479 11 4.48044 11.1054 4.2929 11.2929C4.10537 11.4804 4.00001 11.7348 4.00001 12C4.00001 12.2652 4.10537 12.5196 4.2929 12.7071C4.48044 12.8947 4.73479 13 5.00001 13H11C11.2652 13 11.5196 12.8947 11.7071 12.7071C11.8947 12.5196 12 12.2652 12 12C12 11.7348 11.8947 11.4804 11.7071 11.2929C11.5196 11.1054 11.2652 11 11 11Z" fill="white"/>
</svg>
